{"title":"Inside.Out.2015.BRRip.480p.x264.AAC-VYTO [P2PDL]","uid":12891145,"size":361601056,"categoryP":"video","categoryS":"movies","magnet":"?xt=urn:btih:4ccc1be5cfb2d50cec6e5efc1178cfdbea182507&amp;dn=Inside.Out.2015.BRRip.480p.x264.AAC-VYTO+%5BP2PDL%5D&amp;tr=udp%3A%2F%2Ftracker.leechers-paradise.org%3A6969&amp;tr=udp%3A%2F%2Fzer0day.ch%3A1337&amp;tr=udp%3A%2F%2Fopen.demonii.com%3A1337&amp;tr=udp%3A%2F%2Ftracker.coppersurfer.tk%3A6969&amp;tr=udp%3A%2F%2Fexodus.desync.com%3A6969","seeders":5,"leechers":5,"uploader":"VYTOP2PDL","files":7,"time":1449122919,"description":"____    ____ ____    ____ .___________.  ______   \r\n     /   /      /   / |           | /  __    \r\n    /   /      /   /  `---|  |----`|  |  |  | \r\n        /     _    _/       |  |     |  |  |  | \r\n       /        |  |         |  |     |  `--'  | \r\n    __/         |__|         |__|      ______/  \r\n                                                  \r\nPresenting Small Encodes with quality for years!\r\n                                                                                                   \r\n                                                                                                   \r\n\r\nInside.Out.2015.BRRip.480p.x264.AAC-VYTO\r\n\r\n\r\nGenre: Animation, Adventure, Comedy   \nhttp://www.imdb.com/title/tt2096673/\r\n\r\n\r\nGeneral\r\nFormat                         : MPEG-4\r\nFile size                      : 337 MiB\r\nDuration                       : 1h 34mn\r\nOverall bit rate               : 497 Kbps\r\n\r\nVideo\r\nFormat                         : AVC\r\nBit rate                       : 462 Kbps\r\nWidth                          : 720 pixels\r\nHeight                         : 400 pixels\r\nDisplay aspect ratio           : 16:9\r\nFrame rate mode                : Constant\r\nFrame rate                     : 23.976 fps\r\nBit depth                      : 8 bits\r\nStream size                    : 313 MiB (93%)\r\nWriting library                : x264\r\n\r\nAudio\r\nFormat                         : AAC\r\nBit rate mode                  : Variable\r\nBit rate                       : 32.0 Kbps\r\nChannel(s)                     : 2 channels \r\nChannel positions              : Front: L R\r\nSampling rate                  : 48.0 KHz\r\nStream size                    : 21.7 MiB (6%)\r\nLanguage                       : English\r\n\r\nSubtitle                       : Yes (English)\r\n \nhttp://ititli.com/mh \nhttp://ititli.com/ms \nhttp://ititli.com/mY \nhttp://ititli.com/m4 \nhttp://ititli.com/mK \nhttp://ititli.com/mV \nhttp://ititli.com/mt \nhttp://ititli.com/mL \nhttp://ititli.com/md\r\n\r\n\r\n----------------------------------------------------------------------------------------------------\r\n\r\n\r\nEncoder Notes: Looking For Early Access To Anything You Can Provide DVDScr, R5, DVDR, BluRay, Direct\r\nAudio, Music Releases and Seedboxes. If You Got anything to offer please contact us.\r\n\r\nSupport us by donating BC - 1FgwdzPsd1y25Gea8wP1qni35uGCtmkRCD","torrent":{"xt":"urn:btih:4ccc1be5cfb2d50cec6e5efc1178cfdbea182507","amp;dn":"Inside.Out.2015.BRRip.480p.x264.AAC-VYTO+%5BP2PDL%5D","amp;tr":["udp%3A%2F%2Ftracker.leechers-paradise.org%3A6969","udp%3A%2F%2Fzer0day.ch%3A1337","udp%3A%2F%2Fopen.demonii.com%3A1337","udp%3A%2F%2Ftracker.coppersurfer.tk%3A6969","udp%3A%2F%2Fexodus.desync.com%3A6969"],"infoHash":"4ccc1be5cfb2d50cec6e5efc1178cfdbea182507","infoHashBuffer":{"type":"Buffer","data":[76,204,27,229,207,178,213,12,236,110,94,252,17,120,207,219,234,24,37,7]},"announce":[],"urlList":[]}}